# xmcd CD database file
#
# Track frame offsets:
#	150
#	10976
#	27261
#	43493
#	58257
#	76695
#	98192
#	112234
#	125593
#	140315
#	163961
#
# Disc length: 2389 seconds
#
# Revision: 0
# Processed by: cddbd v1.5.1PL0 Copyright (c) Steve Scherf et al.
# Submitted via: CDex 1.50Beta7
#
DISCID=9b09530b
DTITLE=騒音寺 - 不良少年の口笛
DYEAR=2005
DGENRE=Rock
TTITLE0=Brandnew Guitar Blues
TTITLE1=不良少年の口笛
TTITLE2=風来坊
TTITLE3=東京ドール
TTITLE4=小さな恋人
TTITLE5=浮気節
TTITLE6=騒音寺の元禄花見踊り
TTITLE7=ろくでなし忍法帳
TTITLE8=かえるの唄
TTITLE9=Hands
TTITLE10=Life Is Beautiful
EXTD=YEAR: 2005
EXTT0=
EXTT1=
EXTT2=
EXTT3=
EXTT4=
EXTT5=
EXTT6=
EXTT7=
EXTT8=
EXTT9=
EXTT10=
PLAYORDER=
